# xmcd
#
# Track frame offsets: 
#        150
#        17452
#        26102
#        36162
#        48987
#        55932
#        62077
#        70680
#        78005
#        90520
#        108767
#        121460
#        130402
#        142427
#        146062
#        161850
#        168397
#        188337
#        206085
#        215125
#
# Disc length: 2929 seconds
#
# Revision: 14
# Processed by: cddbd v1.5.2PL0 Copyright (c) Steve Scherf et al.
# Submitted via: ExactAudioCopy v1.3
#
DISCID=230b6f14
DTITLE=Ennio Morricone - The mission
DYEAR=1986
DGENRE=Soundtrack
TTITLE0=On Earth as it is in Heaven
TTITLE1=Falls
TTITLE2=Gabriel's oboe
TTITLE3=Ava Maria Guarani
TTITLE4=Brothers
TTITLE5=Carlotta
TTITLE6=Vita nostra
TTITLE7=Climb
TTITLE8=Remorse
TTITLE9=Penance
TTITLE10=The mission
TTITLE11=River
TTITLE12=Gabriel's oboe
TTITLE13=Te Deum Guarani
TTITLE14=Refusal
TTITLE15=Asuncion
TTITLE16=Alone
TTITLE17=Guarani
TTITLE18=The sword
TTITLE19=Miserere
EXTD=YEAR: 1986
EXTT0=
EXTT1=
EXTT2=
EXTT3=
EXTT4=
EXTT5=
EXTT6=
EXTT7=
EXTT8=
EXTT9=
EXTT10=
EXTT11=
EXTT12=
EXTT13=
EXTT14=
EXTT15=
EXTT16=
EXTT17=
EXTT18=
EXTT19=
PLAYORDER=
